# xmcd
#
# Track frame offsets:
#	150
#	34616
#	73354
#	127867
#	152847
#
# Disc length: 3363 seconds
#
# Revision: 1
# Processed by: cddbd v1.5.1PL2 Copyright (c) Steve Scherf et al.
# Submitted via: EasyCDDAExtractor 9.0.0.1
#
DISCID=3d0d2105
DTITLE=Deep Purple - Olympiahalle Munich 21-01-73 Disc 1
DYEAR=1973
DGENRE=Hard Rock
TTITLE0=Highway Star
TTITLE1=Smoke On The Water
TTITLE2=Strange Kind Of Woman
TTITLE3=Mary Long
TTITLE4=Lazy (Incl Drum Solo and The Mule)
EXTD=
EXTT0=
EXTT1=
EXTT2=
EXTT3=
EXTT4=
PLAYORDER=
